<?xml version="1.0" encoding="UTF-8" standalone="no"?><svg xmlns="http://www.w3.org/2000/svg" xmlns:xlink="http://www.w3.org/1999/xlink" contentStyleType="text/css" height="407px" preserveAspectRatio="none" style="width:498px;height:407px;background:#FFFFFF;" version="1.1" viewBox="0 0 498 407" width="498px" zoomAndPan="magnify"><defs/><g><rect fill="none" height="47.7344" id="_title" style="stroke:none;stroke-width:1.0;" width="476" x="5" y="5"/><text fill="#000000" font-family="sans-serif" font-size="30" font-weight="bold" lengthAdjust="spacing" textLength="466" x="10" y="41.1426">SW components of WJH-SV Tool</text><!--MD5=[b9a13ab856d31f62e2ee6222572f5735]
cluster WJH-SV--><g id="cluster_WJH-SV"><path d="M10.5,65.1895 L82.5,65.1895 A3.75,3.75 0 0 1 85,67.6895 L92,93.8301 L312.5,93.8301 A2.5,2.5 0 0 1 315,96.3301 L315,167.6895 A2.5,2.5 0 0 1 312.5,170.1895 L10.5,170.1895 A2.5,2.5 0 0 1 8,167.6895 L8,67.6895 A2.5,2.5 0 0 1 10.5,65.1895 " fill="#EDEDED" style="stroke:#000000;stroke-width:1.5;"/><line style="stroke:#000000;stroke-width:1.5;" x1="8" x2="92" y1="93.8301" y2="93.8301"/><text fill="#000000" font-family="sans-serif" font-size="18" font-weight="bold" lengthAdjust="spacing" textLength="71" x="12" y="85.875">WJH-SV</text></g><!--MD5=[bdef3d974a7a78198b9fb589af88ba8e]
cluster Python Libraries (mostly third party)--><g id="cluster_Python Libraries (mostly third party)"><path d="M161.5,194.1895 L478.5,194.1895 A3.75,3.75 0 0 1 481,196.6895 L488,222.8301 L488.5,222.8301 A2.5,2.5 0 0 1 491,225.3301 L491,296.6895 A2.5,2.5 0 0 1 488.5,299.1895 L161.5,299.1895 A2.5,2.5 0 0 1 159,296.6895 L159,196.6895 A2.5,2.5 0 0 1 161.5,194.1895 " fill="#90EE90" style="stroke:#000000;stroke-width:1.5;"/><line style="stroke:#000000;stroke-width:1.5;" x1="159" x2="488" y1="222.8301" y2="222.8301"/><text fill="#000000" font-family="sans-serif" font-size="18" font-weight="bold" lengthAdjust="spacing" textLength="316" x="163" y="214.875">Python Libraries (mostly third party)</text></g><!--MD5=[f348545d0acf773b1c4afe66a9062315]
entity wjh--><g id="elem_wjh"><rect fill="#63D8FF" height="47.6094" rx="2.5" ry="2.5" style="stroke:#000000;stroke-width:0.5;" width="89" x="209.5" y="106.1895"/><rect fill="#63D8FF" height="10" style="stroke:#000000;stroke-width:0.5;" width="15" x="278.5" y="111.1895"/><rect fill="#63D8FF" height="2" style="stroke:#000000;stroke-width:0.5;" width="4" x="276.5" y="113.1895"/><rect fill="#63D8FF" height="2" style="stroke:#000000;stroke-width:0.5;" width="4" x="276.5" y="117.1895"/><text fill="#000000" font-family="sans-serif" font-size="14" font-weight="bold" lengthAdjust="spacing" textLength="49" x="224.5" y="140.7227">wjh_sv</text></g><g id="elem_GMN5"><path d="M24,117.1895 L24,143.541 A0,0 0 0 0 24,143.541 L174,143.541 A0,0 0 0 0 174,143.541 L174,135.1895 L209.36,130.1895 L174,127.1895 L174,127.1895 L164,117.1895 L24,117.1895 A0,0 0 0 0 24,117.1895 " fill="#FEFFDD" style="stroke:#181818;stroke-width:0.5;"/><path d="M164,117.1895 L164,127.1895 L174,127.1895 L164,117.1895 " fill="#FEFFDD" style="stroke:#181818;stroke-width:0.5;"/><text fill="#000000" font-family="sans-serif" font-size="13" lengthAdjust="spacing" textLength="129" x="30" y="135.6846">Application entry point</text></g><!--MD5=[83760e42afa36eb46b55c6ac128b02c6]
entity PyInstaller--><g id="elem_PyInstaller"><rect fill="#F1F1F1" height="47.6094" rx="2.5" ry="2.5" style="stroke:#000000;stroke-width:0.5;" width="105" x="337.5" y="235.1895"/><rect fill="#F1F1F1" height="10" style="stroke:#000000;stroke-width:0.5;" width="15" x="422.5" y="240.1895"/><rect fill="#F1F1F1" height="2" style="stroke:#000000;stroke-width:0.5;" width="4" x="420.5" y="242.1895"/><rect fill="#F1F1F1" height="2" style="stroke:#000000;stroke-width:0.5;" width="4" x="420.5" y="246.1895"/><text fill="#000000" font-family="sans-serif" font-size="14" lengthAdjust="spacing" textLength="65" x="352.5" y="269.7227">PyInstaller</text></g><!--MD5=[197eeb83ec8b6fb97f6c4fd55e3382cf]
entity openpyxl--><g id="elem_openpyxl"><rect fill="#F1F1F1" height="47.6094" rx="2.5" ry="2.5" style="stroke:#000000;stroke-width:0.5;" width="96" x="206" y="235.1895"/><rect fill="#F1F1F1" height="10" style="stroke:#000000;stroke-width:0.5;" width="15" x="282" y="240.1895"/><rect fill="#F1F1F1" height="2" style="stroke:#000000;stroke-width:0.5;" width="4" x="280" y="242.1895"/><rect fill="#F1F1F1" height="2" style="stroke:#000000;stroke-width:0.5;" width="4" x="280" y="246.1895"/><text fill="#000000" font-family="sans-serif" font-size="14" lengthAdjust="spacing" textLength="56" x="221" y="269.7227">openpyxl</text></g><!--MD5=[44a0f20c59f12dcccca4000be10e9315]
entity icon--><g id="elem_icon"><polygon fill="#FFFF00" points="334,116.1895,344,106.1895,444,106.1895,444,143.7988,434,153.7988,334,153.7988,334,116.1895" style="stroke:#181818;stroke-width:0.5;"/><line style="stroke:#181818;stroke-width:0.5;" x1="434" x2="444" y1="116.1895" y2="106.1895"/><line style="stroke:#181818;stroke-width:0.5;" x1="334" x2="434" y1="116.1895" y2="116.1895"/><line style="stroke:#181818;stroke-width:0.5;" x1="434" x2="434" y1="116.1895" y2="153.7988"/><text fill="#000000" font-family="sans-serif" font-size="14" lengthAdjust="spacing" textLength="70" x="349" y="140.7227">wjh_sv.png</text></g><!--MD5=[e4287f5d9b3504313733b8feade3e340]
entity wjh_exe--><g id="elem_wjh_exe"><polygon fill="#DDA0DD" points="331.5,353.1895,341.5,343.1895,448.5,343.1895,448.5,380.7988,438.5,390.7988,331.5,390.7988,331.5,353.1895" style="stroke:#181818;stroke-width:0.5;"/><line style="stroke:#181818;stroke-width:0.5;" x1="438.5" x2="448.5" y1="353.1895" y2="343.1895"/><line style="stroke:#181818;stroke-width:0.5;" x1="331.5" x2="438.5" y1="353.1895" y2="353.1895"/><line style="stroke:#181818;stroke-width:0.5;" x1="438.5" x2="438.5" y1="353.1895" y2="390.7988"/><text fill="#000000" font-family="sans-serif" font-size="14" lengthAdjust="spacing" textLength="77" x="346.5" y="377.7227">WJH-SV.exe</text></g><!--MD5=[95faccedc57e116ddb67a35623c86b2f]
link wjh to icon--><g id="link_wjh_icon"><path d="M298.56,130.1895 C308.59,130.1895 318.62,130.1895 328.64,130.1895 " fill="none" id="wjh-to-icon" style="stroke:#000000;stroke-width:1.0;"/><polygon fill="#000000" points="333.89,130.1895,324.89,126.1895,328.89,130.1895,324.89,134.1895,333.89,130.1895" style="stroke:#000000;stroke-width:1.0;"/></g><!--MD5=[f642b52f09d08e30f7db70d3312045d9]
link wjh to openpyxl--><g id="link_wjh_openpyxl"><path d="M254,154.4795 C254,175.6995 254,207.0795 254,229.7695 " fill="none" id="wjh-to-openpyxl" style="stroke:#000000;stroke-width:1.0;"/><polygon fill="#000000" points="254,235.0395,258,226.0395,254,230.0395,250,226.0395,254,235.0395" style="stroke:#000000;stroke-width:1.0;"/></g><!--MD5=[979101a3da9bdb785c730ce047602759]
link PyInstaller to wjh_exe--><g id="link_PyInstaller_wjh_exe"><path d="M390,283.1895 C390,299.1895 390,320.6395 390,337.7195 " fill="none" id="PyInstaller-to-wjh_exe" style="stroke:#000000;stroke-width:1.0;"/><polygon fill="#000000" points="390,342.8695,394,333.8695,390,337.8695,386,333.8695,390,342.8695" style="stroke:#000000;stroke-width:1.0;"/></g><!--MD5=[97943f1f2ca42718a57c3c078c96cb60]
@startuml cdBonPrinterSWComponents.svg
skinparam titleFontSize 30
skinparam titleFontStyle bold
skinparam packageBorderColor black
skinparam packageFontSize 18
skinparam groupFontStyle bold
skinparam componentBorderColor black
skinparam interfaceBorderColor black
skinparam CollectionsBorderColor black

title SW components of WJH-SV Tool

node "wjh_sv.png" as icon #yellow

package "WJH-SV" as WJH-SV #ededed {
  component "**wjh_sv**" as wjh #63d8ff
  note left of wjh
    Application entry point
  end note
}

node "WJH-SV.exe" as wjh_exe #plum

package "Python Libraries (mostly third party)" #lightgreen {
 [PyInstaller]
 [openpyxl]
}

[wjh] -[#black]r-> [icon]
[wjh] -[#black]-> [openpyxl]
[PyInstaller] -[#black]d-> wjh_exe
@enduml

PlantUML version 1.2022.8(Sun Sep 25 11:00:33 CEST 2022)
(GPL source distribution)
Java Runtime: Java(TM) SE Runtime Environment
JVM: Java HotSpot(TM) 64-Bit Server VM
Default Encoding: Cp1252
Language: de
Country: DE
--></g></svg>